<svg xmlns="http://www.w3.org/2000/svg" viewBox="0 0 64 64" fill="none">
  <defs>
    <linearGradient id="a" x1="10" x2="54" y1="10" y2="54" gradientUnits="userSpaceOnUse">
      <stop stop-color="#162126" />
      <stop offset="1" stop-color="#135C59" />
    </linearGradient>
    <linearGradient id="b" x1="18" x2="46" y1="18" y2="46" gradientUnits="userSpaceOnUse">
      <stop stop-color="#F2B56A" />
      <stop offset="1" stop-color="#E37D2D" />
    </linearGradient>
  </defs>
  <rect width="52" height="52" x="6" y="6" fill="url(#a)" rx="18" />
  <path
    fill="#fff"
    d="M21.5 22.5A3.5 3.5 0 0 1 25 19h14a3.5 3.5 0 1 1 0 7H25a3.5 3.5 0 0 1-3.5-3.5ZM21.5 32A3.5 3.5 0 0 1 25 28.5h14a3.5 3.5 0 1 1 0 7H25a3.5 3.5 0 0 1-3.5-3.5ZM21.5 41.5A3.5 3.5 0 0 1 25 38h8a3.5 3.5 0 1 1 0 7h-8a3.5 3.5 0 0 1-3.5-3.5Z"
  />
  <circle cx="42.5" cy="41.5" r="6.5" fill="url(#b)" />
</svg>
