<svg xmlns="http://www.w3.org/2000/svg" viewBox="0 0 64 64" fill="none">
  <defs>
    <linearGradient id="bg" x1="8" x2="56" y1="8" y2="56" gradientUnits="userSpaceOnUse">
      <stop stop-color="#140b0d" />
      <stop offset="1" stop-color="#2f141a" />
    </linearGradient>
    <linearGradient id="gold" x1="18" x2="46" y1="14" y2="52" gradientUnits="userSpaceOnUse">
      <stop stop-color="#f2d58d" />
      <stop offset="1" stop-color="#c99627" />
    </linearGradient>
    <linearGradient id="flame" x1="32" x2="32" y1="12" y2="24" gradientUnits="userSpaceOnUse">
      <stop stop-color="#fff2c4" />
      <stop offset="0.55" stop-color="#f7bd53" />
      <stop offset="1" stop-color="#df7f24" />
    </linearGradient>
  </defs>
  <rect x="4" y="4" width="56" height="56" rx="18" fill="url(#bg)" />
  <path
    d="M17 28h12.5m17.5 0H29.5m0 0a8.5 8.5 0 1 0 17 0a8.5 8.5 0 0 0-17 0Zm0 0c0 8.56 6.94 15.5 15.5 15.5S60.5 36.56 60.5 28"
    stroke="url(#gold)"
    stroke-width="2.4"
    stroke-linecap="round"
    stroke-linejoin="round"
  />
  <path
    d="M24 43.5 20.5 49h23L40 43.5"
    stroke="url(#gold)"
    stroke-width="2.4"
    stroke-linecap="round"
    stroke-linejoin="round"
  />
  <path d="M16 49h32" stroke="url(#gold)" stroke-width="2.4" stroke-linecap="round" />
  <path
    d="M32 13c-2.2 3.04-3.8 5.2-3.8 7.4A3.8 3.8 0 0 0 32 24.2a3.8 3.8 0 0 0 3.8-3.8c0-2.2-1.6-4.36-3.8-7.4Z"
    fill="url(#flame)"
  />
  <path d="m41.8 28 8.7-7.6H56l-9.8 9" stroke="url(#gold)" stroke-width="2.4" stroke-linecap="round" stroke-linejoin="round" />
</svg>
